<svg xmlns="http://www.w3.org/2000/svg">
    <g id='icon-profile' transform="translate(-546.269 -195.397)"><path d="M572.138,221.245a15.738,15.738,0,0,0-21.065-.253l-1.322-1.5a17.738,17.738,0,0,1,23.741.28Z"/><path d="M561.464,204.152a4.96,4.96,0,1,1-4.96,4.96,4.966,4.966,0,0,1,4.96-4.96m0-2a6.96,6.96,0,1,0,6.96,6.96,6.96,6.96,0,0,0-6.96-6.96Z"/><path d="M561.562,197.4a13.293,13.293,0,1,1-13.293,13.293A13.308,13.308,0,0,1,561.562,197.4m0-2a15.293,15.293,0,1,0,15.293,15.293A15.293,15.293,0,0,0,561.562,195.4Z"/></g>
    <g id='icon-email'>
    <path d="M93,19H7c-1.1,0-2,0.9-2,2v58c0,0,0,0,0,0.1c0,0.1,0,0.1,0,0.2c0,0.1,0,0.1,0,0.2c0,0.1,0,0.1,0.1,0.2c0,0.1,0,0.1,0.1,0.2
	c0,0.1,0.1,0.1,0.1,0.2c0,0.1,0.1,0.1,0.1,0.2c0,0,0,0,0,0.1c0,0,0,0,0.1,0.1c0,0,0.1,0.1,0.1,0.1c0,0,0.1,0.1,0.1,0.1
	c0,0,0.1,0.1,0.2,0.1c0.1,0,0.1,0.1,0.2,0.1c0.1,0,0.1,0.1,0.2,0.1s0.1,0,0.2,0.1c0.1,0,0.1,0,0.2,0c0.1,0,0.1,0,0.2,0
	c0,0,0.1,0,0.1,0h86c0.2,0,0.3,0,0.4,0c0,0,0.1,0,0.1,0c0.1,0,0.2-0.1,0.3-0.1c0,0,0.1-0.1,0.1-0.1c0.1,0,0.2-0.1,0.2-0.2
	c0,0,0.1-0.1,0.1-0.1c0.1-0.1,0.1-0.1,0.2-0.2l0.1-0.1c0,0,0,0,0-0.1c0-0.1,0.1-0.1,0.1-0.2c0,0,0.1-0.1,0.1-0.2
	c0-0.1,0-0.1,0.1-0.2s0-0.1,0.1-0.2c0-0.1,0-0.1,0-0.2c0-0.1,0-0.1,0-0.2c0,0,0,0,0-0.1V21C95,19.9,94.1,19,93,19z M9,32.1l27,21.4
	L9,74.9V32.1z M12.8,77l26.5-21l9.5,7.5c0.4,0.3,0.8,0.4,1.2,0.4s0.9-0.1,1.2-0.4l9.5-7.5l26.5,21H12.8z M91,74.9L64,53.5l27-21.4
	V74.9z M91,27l-1.2,1L50,59.5L10.2,28L9,27v-4h82V27z"/>
    </g>
	<g id='icon-download'>
		<svg fill="none" stroke="currentColor" stroke-width="2" stroke-linecap="round" stroke-linejoin="round" class="feather feather-download"><path d="M21 15v4a2 2 0 0 1-2 2H5a2 2 0 0 1-2-2v-4"></path><polyline points="7 10 12 15 17 10"></polyline><line x1="12" y1="15" x2="12" y2="3"></line></svg>
	</g>
</svg>